<svg width="88" height="98" viewBox="0 0 88 98" fill="none" xmlns="http://www.w3.org/2000/svg">
<path d="M65.0513 22.8334C64.9798 22.7307 64.9049 22.6464 64.8306 22.5599C63.9278 21.4764 62.7922 20.7215 61.523 20.361L61.5092 20.357C60.1217 19.9596 58.6242 20.036 57.1651 20.5785C55.7061 21.1211 54.3361 22.1111 53.1911 23.4502L53.1562 23.4932C52.2263 24.5879 51.4775 25.8929 50.9635 27.3147L50.9508 27.3521L34.3545 22.5628L34.161 16.2633C34.1207 14.8383 33.6652 13.5472 32.8765 12.6217C32.0878 11.6962 31.0175 11.1969 29.8577 11.2135L29.8914 11.2136L23.8056 11.2371L23.5839 13.3099L29.6697 13.2863C30.4269 13.2829 31.1245 13.6128 31.6397 14.218C32.155 14.8232 32.4548 15.665 32.4865 16.5952L32.4857 16.6239L32.6579 22.0756L22.1192 19.0344L33.1924 46.8114L28.3979 63.4256C24.198 62.6188 20.8712 63.5494 20.2461 65.7155L20.1298 66.1185L37.1134 71.0195L37.2297 70.6166C37.8541 68.4527 35.5321 65.8823 31.5512 64.3356L36.3457 47.7213L51.2441 36.8685C51.4774 37.3385 51.7581 37.7934 52.0718 38.2119L52.1021 38.2496C53.5349 40.1041 55.5856 41.0754 57.806 40.9512C60.0264 40.827 62.2362 39.6174 63.9524 37.5866C65.6687 35.5559 66.752 32.8691 66.9656 30.1133C67.1792 27.3574 66.5058 24.7566 65.0924 22.879L65.0621 22.8413L65.0513 22.8334ZM64.5253 31.1391L60.2093 29.9105L63.7423 25.721C64.5781 27.223 64.8617 29.1506 64.5334 31.098L64.5253 31.1391ZM62.6782 24.3142L59.1413 28.5171L58.3565 23.0984C59.1557 22.9304 59.9525 22.9571 60.701 23.1769C61.4669 23.3979 62.1429 23.8004 62.7111 24.343L62.6782 24.3142ZM54.6531 25.4445C55.2735 24.7096 55.959 24.1381 56.6929 23.7301L56.7082 23.7224L57.4929 29.1411L53.1872 27.9154C53.5725 26.9438 54.0788 26.1108 54.6772 25.4129L54.6538 25.4423L54.6531 25.4445ZM26.5908 23.3779L32.747 25.1544L32.8315 28.0414L27.882 26.6131L26.5908 23.3779ZM51.5761 33.453L50.1706 33.0474L50.1668 33.0608L34.5161 28.5444L34.4315 25.6574L54.3713 31.4115L51.5761 33.453ZM54.4523 36.7573L57.9893 32.5545L58.774 37.9731C58.0277 38.1388 57.2183 38.1271 56.4317 37.9001C55.6641 37.6786 54.987 37.2734 54.4201 36.7263L54.4523 36.7573ZM62.4729 35.6426C61.8721 36.3576 61.1801 36.9399 60.4349 37.3575L60.4196 37.3652L59.6348 31.9465L63.9399 33.1744C63.5658 34.097 63.0597 34.9451 62.4494 35.672L62.4753 35.6408L62.4729 35.6426Z" fill="#FFF9F1"/>
</svg>
