<svg xmlns="http://www.w3.org/2000/svg" width="28" height="28" viewBox="0 0 28 28" fill="none">
<path d="M16.3671 14.0647V22.8086C16.4115 23.1415 16.3005 23.4966 16.0453 23.7296C15.9427 23.8325 15.8207 23.9141 15.6865 23.9698C15.5523 24.0255 15.4084 24.0541 15.263 24.0541C15.1177 24.0541 14.9738 24.0255 14.8396 23.9698C14.7053 23.9141 14.5834 23.8325 14.4807 23.7296L12.2504 21.4993C12.1293 21.381 12.0373 21.2363 11.9815 21.0765C11.9257 20.9167 11.9076 20.7462 11.9286 20.5783V14.0647H11.8953L5.50378 5.87561C5.32359 5.64429 5.24228 5.35104 5.27763 5.05995C5.31297 4.76886 5.4621 4.5036 5.69242 4.32212C5.90325 4.16677 6.13628 4.078 6.3804 4.078H21.9153C22.1594 4.078 22.3924 4.16677 22.6033 4.32212C22.8336 4.5036 22.9827 4.76886 23.0181 5.05995C23.0534 5.35104 22.9721 5.64429 22.7919 5.87561L16.4004 14.0647H16.3671Z" fill="#E8DED1"/>
</svg>