<svg width="28" height="28" viewBox="0 0 28 28" fill="none" xmlns="http://www.w3.org/2000/svg">
<g id="iwwa:option">
<g id="Group">
<path id="Vector" d="M16.1784 6.52044C16.1785 6.8066 16.1222 7.08998 16.0128 7.3544C15.9034 7.61882 15.7429 7.85909 15.5406 8.0615C15.3384 8.26392 15.0982 8.4245 14.8338 8.5341C14.5695 8.64369 14.2862 8.70015 14 8.70024C13.7138 8.70033 13.4304 8.64406 13.166 8.53464C12.9016 8.42521 12.6613 8.26478 12.4589 8.06249C12.2565 7.86021 12.0959 7.62004 11.9863 7.35569C11.8767 7.09135 11.8203 6.808 11.8202 6.52184C11.82 5.94391 12.0494 5.38957 12.4579 4.98078C12.8665 4.57199 13.4207 4.34223 13.9986 4.34204C14.5765 4.34186 15.1309 4.57126 15.5397 4.97979C15.9484 5.38832 16.1782 5.94251 16.1784 6.52044Z" fill="black"/>
<path id="Vector_2" d="M14 16.1776C15.2031 16.1776 16.1784 15.2023 16.1784 13.9992C16.1784 12.7961 15.2031 11.8208 14 11.8208C12.7969 11.8208 11.8216 12.7961 11.8216 13.9992C11.8216 15.2023 12.7969 16.1776 14 16.1776Z" fill="black"/>
<path id="Vector_3" d="M14 23.6578C15.2031 23.6578 16.1784 22.6825 16.1784 21.4794C16.1784 20.2763 15.2031 19.301 14 19.301C12.7969 19.301 11.8216 20.2763 11.8216 21.4794C11.8216 22.6825 12.7969 23.6578 14 23.6578Z" fill="black"/>
</g>
</g>
</svg>
