<svg width="31" height="31" viewBox="0 0 31 31" fill="none" xmlns="http://www.w3.org/2000/svg">
<g id="uil:facebook">
<path id="Vector" d="M26.9958 2.58325H4.00409C3.62726 2.58325 3.26586 2.73295 2.9994 2.9994C2.73295 3.26586 2.58325 3.62726 2.58325 4.00409V26.9958C2.58325 27.3726 2.73295 27.734 2.9994 28.0004C3.26586 28.2669 3.62726 28.4166 4.00409 28.4166H16.3783V18.4062H13.0199V14.5312H16.3783V11.6249C16.3087 10.9426 16.3892 10.2533 16.6143 9.60545C16.8393 8.95756 17.2033 8.36675 17.6809 7.87445C18.1584 7.38215 18.7378 7.00029 19.3786 6.75564C20.0193 6.511 20.7058 6.40949 21.3899 6.45825C22.3953 6.45207 23.4001 6.50382 24.3995 6.61325V10.1008H22.3458C20.7183 10.1008 20.4083 10.8758 20.4083 11.9995V14.4924H24.2833L23.7795 18.3674H20.4083V28.4166H26.9958C27.1823 28.4166 27.3671 28.3798 27.5395 28.3084C27.7119 28.237 27.8685 28.1324 28.0004 28.0004C28.1324 27.8685 28.237 27.7119 28.3084 27.5395C28.3798 27.3671 28.4166 27.1823 28.4166 26.9958V4.00409C28.4166 3.8175 28.3798 3.63274 28.3084 3.46036C28.237 3.28797 28.1324 3.13134 28.0004 2.9994C27.8685 2.86747 27.7119 2.76281 27.5395 2.69141C27.3671 2.62 27.1823 2.58325 26.9958 2.58325Z" fill="white"/>
</g>
</svg>
