<svg width="24" height="25" viewBox="0 0 24 25" fill="none" xmlns="http://www.w3.org/2000/svg">
<g id="ic:round-edit">
<path id="Vector" d="M3 18.3775V21.4175C3 21.6975 3.22 21.9175 3.5 21.9175H6.54C6.67 21.9175 6.8 21.8675 6.89 21.7675L17.81 10.8575L14.06 7.1075L3.15 18.0175C3.05 18.1175 3 18.2375 3 18.3775ZM20.71 7.9575C20.8027 7.86498 20.8762 7.7551 20.9264 7.63412C20.9766 7.51315 21.0024 7.38347 21.0024 7.2525C21.0024 7.12153 20.9766 6.99185 20.9264 6.87087C20.8762 6.7499 20.8027 6.64001 20.71 6.5475L18.37 4.2075C18.2775 4.11479 18.1676 4.04125 18.0466 3.99107C17.9257 3.94088 17.796 3.91505 17.665 3.91505C17.534 3.91505 17.4043 3.94088 17.2834 3.99107C17.1624 4.04125 17.0525 4.11479 16.96 4.2075L15.13 6.0375L18.88 9.7875L20.71 7.9575Z" fill="white"/>
</g>
</svg>
