<svg width="31" height="30" viewBox="0 0 31 30" fill="none" xmlns="http://www.w3.org/2000/svg">
<g id="mdi:instagram">
<path id="Vector" d="M10.0749 2.5H20.9249C25.0583 2.5 28.4166 5.75 28.4166 9.75V20.25C28.4166 22.1728 27.6273 24.0169 26.2223 25.3765C24.8174 26.7362 22.9118 27.5 20.9249 27.5H10.0749C5.94159 27.5 2.58325 24.25 2.58325 20.25V9.75C2.58325 7.82718 3.37255 5.98311 4.77751 4.62348C6.18247 3.26384 8.08801 2.5 10.0749 2.5ZM9.81659 5C8.58333 5 7.40058 5.47411 6.52854 6.31802C5.65649 7.16193 5.16659 8.30653 5.16659 9.5V20.5C5.16659 22.9875 7.24617 25 9.81659 25H21.1833C22.4165 25 23.5993 24.5259 24.4713 23.682C25.3433 22.8381 25.8333 21.6935 25.8333 20.5V9.5C25.8333 7.0125 23.7537 5 21.1833 5H9.81659ZM22.2812 6.875C22.7094 6.875 23.1201 7.03962 23.4229 7.33265C23.7256 7.62567 23.8958 8.0231 23.8958 8.4375C23.8958 8.8519 23.7256 9.24933 23.4229 9.54235C23.1201 9.83538 22.7094 10 22.2812 10C21.853 10 21.4423 9.83538 21.1395 9.54235C20.8367 9.24933 20.6666 8.8519 20.6666 8.4375C20.6666 8.0231 20.8367 7.62567 21.1395 7.33265C21.4423 7.03962 21.853 6.875 22.2812 6.875ZM15.4999 8.75C17.2128 8.75 18.8555 9.40848 20.0667 10.5806C21.2778 11.7527 21.9583 13.3424 21.9583 15C21.9583 16.6576 21.2778 18.2473 20.0667 19.4194C18.8555 20.5915 17.2128 21.25 15.4999 21.25C13.7871 21.25 12.1444 20.5915 10.9332 19.4194C9.72202 18.2473 9.04159 16.6576 9.04159 15C9.04159 13.3424 9.72202 11.7527 10.9332 10.5806C12.1444 9.40848 13.7871 8.75 15.4999 8.75ZM15.4999 11.25C14.4722 11.25 13.4866 11.6451 12.7599 12.3483C12.0332 13.0516 11.6249 14.0054 11.6249 15C11.6249 15.9946 12.0332 16.9484 12.7599 17.6517C13.4866 18.3549 14.4722 18.75 15.4999 18.75C16.5276 18.75 17.5133 18.3549 18.24 17.6517C18.9667 16.9484 19.3749 15.9946 19.3749 15C19.3749 14.0054 18.9667 13.0516 18.24 12.3483C17.5133 11.6451 16.5276 11.25 15.4999 11.25Z" fill="white"/>
</g>
</svg>
