<svg width="32" height="32" viewBox="0 0 32 32" fill="none" xmlns="http://www.w3.org/2000/svg">
<g id="la:bed">
<path id="Vector" d="M6 6C4.355 6 3 7.355 3 9V15.781C2.39 16.332 2 17.121 2 18V27H7V25H25V27H30V18C30 17.121 29.61 16.332 29 15.781V9C29 7.355 27.645 6 26 6H6ZM6 8H26C26.555 8 27 8.445 27 9V15H25V14C25 12.355 23.645 11 22 11H18C17.234 11 16.531 11.3 16 11.781C15.4533 11.2815 14.7405 11.0032 14 11H10C8.355 11 7 12.355 7 14V15H5V9C5 8.445 5.445 8 6 8ZM10 13H14C14.555 13 15 13.445 15 14V15H9V14C9 13.445 9.445 13 10 13ZM18 13H22C22.555 13 23 13.445 23 14V15H17V14C17 13.445 17.445 13 18 13ZM5 17H27C27.555 17 28 17.445 28 18V25H27V23H5V25H4V18C4 17.445 4.445 17 5 17Z" fill="white"/>
</g>
</svg>
